#!OML:ASF F:\VICON\USERDATA\INSTALL\rory3\rory3.ASF
:FULLY-SPECIFIED
:DEGREES
106
root 0.713029852858611 17.69447357638886 36.61022414433015 1.4145799161174408 3.848147168389926 0.16255103248346225
lfemur -18.789178729204956 0.784079708290006 -22.685939168813377
ltibia 45.456150216045444
lfoot 0.8214309926448469 -11.960692193600954
ltoes -8.037492880666337
rfemur -18.091459655833603 4.881905521861361 28.76261568014416
rtibia 66.55307116171291
rfoot 1.6820728151681235 -5.270289730874447
rtoes -2.8660403193351467
lowerback 14.385814720044904 0.24296865182713578 1.4413890766096373
upperback -0.7215658280277288 1.630889017254245 0.7179353053802943
thorax -9.309754689047503 0.5081708970569239 -0.3386338986888337
lowerneck -19.773433028113804 -5.087708380096117 -1.886098297396253
upperneck 15.181546005983671 -7.3989721052902 3.411673097266617
head 8.164828253210379 -3.1704021751255294 0.46191569372519425
lclavicle -1.9521729781560437e-15 1.1013548979497733e-15
lhumerus -51.635384278529884 -7.471973150653798 97.22811382890892
lradius 110.27847099113046
lwrist 46.493016829951316
lhand -18.048547615138286 6.601111996548032
lfingers 7.125020000000001
lthumb 8.140843193863008 36.455190604726866
rclavicle -1.952176533109819e-15 1.1013521049827522e-15
rhumerus -44.4227253460404 17.44666156690091 -101.84357514853897
rradius 113.22518315301289
rwrist -15.41393495918674
rhand -23.81862138273904 -105.17042459304402
rfingers 7.125020000000001
rthumb 3.940469202985164 14.49230821588188
107
root 0.7149924115509585 17.672577009953763 37.72039040857815 1.530352642528153 4.052192022857722 0.4427747595865408
lfemur -17.00937958433174 0.9911613008756435 -22.35814259989602
ltibia 45.7116620315082
lfoot 0.11179484285717012 -11.989155173793359
ltoes -8.260898351308963
rfemur -20.052442853969506 4.3666700512635375 27.983826691950274
rtibia 67.96664954721574
rfoot 1.5960540988708276 -5.445272922757821
rtoes -2.6528266338933495
lowerback 14.504325393065407 0.19354852563164324 1.2112043057106572
upperback -0.6353977264760291 1.3972799953335577 0.5697784604790189
thorax -9.328747396812625 0.4170663462668235 -0.18711622735456684
lowerneck -19.860738172843728 -5.112368966018791 -1.9200101561643674
upperneck 15.115443799951077 -7.314698297190702 3.419061881627704
head 8.15367478409878 -3.1703847490785355 0.46610046520658516
lclavicle -1.9521729781560437e-15 1.1013548979497733e-15
lhumerus -51.31260125798606 -8.208424107221425 97.13680011274998
lradius 109.9866706919092
lwrist 46.53207799709153
lhand -18.181057566945526 6.5369395889728725
lfingers 7.125020000000001
lthumb 8.060316230773703 36.41555749899967
rclavicle -1.952176533109819e-15 1.1013521049827522e-15
rhumerus -44.73889682814426 17.27341681357237 -102.09419814058697
rradius 113.20096550513989
rwrist -16.011345147198856
rhand -23.9965738737833 -108.38748194777926
rfingers 7.125020000000001
rthumb 3.5895212692803358 14.144113728383775
108
root 0.7102579229775359 17.642314577425697 37.505392322785106 1.5612328275289364 4.000059223332504 0.614703200057225
lfemur -17.320231773903696 0.849239281168308 -23.00351124735937
ltibia 46.00188433587218
lfoot -1.503261128698443 -12.385223044858819
ltoes -8.514965376001733
rfemur -21.592793401067397 3.884890136220568 27.231698835759275
rtibia 68.38756090762706
rfoot 1.838933063328997 -5.6415534439288795
rtoes -2.508522108303927
lowerback 14.631287173603335 0.17480678483791104 1.0936593391478615
upperback -0.5842188829951342 1.124783268776759 0.43310287461915775
thorax -9.302016901481146 0.3890812261126565 0.03698891679393443
lowerneck -19.792030626145 -5.000879173204064 -1.906380632218362
upperneck 15.196324071809757 -7.1376890237246915 3.460826943744337
head 8.162335634594713 -3.141965256184593 0.4810506907393919
lclavicle -1.9521729781560437e-15 1.1013548979497733e-15
lhumerus -49.68516145434724 -8.408104843497318 97.30771116090833
lradius 110.10770232071852
lwrist 46.60574064168411
lhand -18.248506067767355 6.561000193964551
lfingers 7.125020000000001
lthumb 8.03135434138479 36.432795942453154
rclavicle -1.952176533109819e-15 1.1013521049827522e-15
rhumerus -45.100063984706466 17.106766132770087 -102.33921288221744
rradius 113.16498254518378
rwrist -16.06025175822838
rhand -23.912266630735814 -107.05106135313588
rfingers 7.125020000000001
rthumb 3.775467333074244 14.526649924199035
109
root 0.7191463847676377 17.65917495442515 38.71924856777748 1.71512473481173 4.217430078437342 0.8771512536393162
lfemur -16.721212949850607 0.8579924051044234 -22.99531060278757
ltibia 46.25651453166133
lfoot -1.9797297516197776 -12.169078830916554
ltoes -8.74342612243601
rfemur -20.302623481501076 4.0424478930670915 27.6011563719364
rtibia 68.28155287672939
rfoot 2.4002655677737805 -5.440484871662387
rtoes -2.433239822571605
lowerback 14.696201966450454 0.13553762044298734 0.9550890353107002
upperback -0.5643669022532632 0.8358976673384412 0.34463825468611375
thorax -9.336991978123732 0.29571255487220527 0.15765460804188386
lowerneck -19.824842872504455 -5.025262933470481 -1.938365888244722
upperneck 15.20769806508599 -7.013891934859922 3.4402185404953256
head 8.170352256999035 -3.128716046499504 0.49431149501900473
lclavicle -1.9521729781560437e-15 1.1013548979497733e-15
lhumerus -49.129077694929435 -8.830388106514555 97.17400825808782
lradius 110.31517297658979
lwrist 46.598391499199224
lhand -18.233588371333486 6.637396932961449
lfingers 7.125020000000001
lthumb 8.007058121148795 36.40367300485978
rclavicle -1.952176533109819e-15 1.1013521049827522e-15
rhumerus -45.594282862012356 16.893501770690644 -102.59178605255973
rradius 113.08953545739503
rwrist -15.960192474069128
rhand -23.875016389380168 -103.79169920543188
rfingers 7.125020000000001
rthumb 3.8054963588143744 14.29534542761661
